<?xml version="1.0" encoding="utf-8"?>
<!-- Generator: Adobe Illustrator 23.0.3, SVG Export Plug-In . SVG Version: 6.00 Build 0)  -->
<svg version="1.1" id="Layer_1" xmlns="http://www.w3.org/2000/svg" xmlns:xlink="http://www.w3.org/1999/xlink" x="0px" y="0px"
	 viewBox="0 0 128 128" style="enable-background:new 0 0 128 128;" xml:space="preserve">
<style type="text/css">
	.st0{fill:#FFFFFF;}
	.st1{fill:#606060;}
</style>
<circle class="st0" cx="64" cy="64" r="64"/>
<path class="st1" d="M103,29H25c-0.6,0-1,0.3-1,0.7v7.8c0,0.4,0.4,0.7,1,0.7h78c0.6,0,1-0.3,1-0.7v-7.8C104,29.3,103.6,29,103,29z"
	/>
<path class="st1" d="M103,57H25c-0.6,0-1,0.3-1,0.7v7.8c0,0.4,0.4,0.7,1,0.7h78c0.6,0,1-0.3,1-0.7v-7.8C104,57.3,103.6,57,103,57z"
	/>
<path class="st1" d="M103,85H25c-0.6,0-1,0.3-1,0.7v7.8c0,0.4,0.4,0.7,1,0.7h78c0.6,0,1-0.3,1-0.7v-7.8C104,85.2,103.6,85,103,85z"
	/>
</svg>
